<?xml version="1.0" standalone="no"?>
<!DOCTYPE svg PUBLIC "-//W3C//DTD SVG 20010904//EN"
 "http://www.w3.org/TR/2001/REC-SVG-20010904/DTD/svg10.dtd">
<svg version="1.0" xmlns="http://www.w3.org/2000/svg"
 width="1280.000000pt" height="640.000000pt" viewBox="0 0 1280.000000 640.000000"
 preserveAspectRatio="xMidYMid meet">
<g transform="translate(0.000000,640.000000) scale(0.100000,-0.100000)"
fill="#000000" stroke="none">
<path d="M11193 5599 c-85 -42 -112 -103 -77 -172 46 -88 140 -173 494 -448
505 -391 670 -569 735 -794 65 -222 -101 -437 -463 -600 -316 -143 -1145 -389
-1737 -515 -601 -128 -1012 -182 -1992 -260 -532 -42 -610 -50 -873 -81 -91
-10 -529 -60 -975 -109 -1894 -211 -2468 -286 -3013 -396 -274 -55 -783 -218
-906 -290 -43 -25 -5 -34 147 -34 365 0 1201 93 3137 350 1732 229 2317 305
3540 455 1502 184 1874 250 2385 420 387 130 709 273 868 386 107 76 232 206
269 280 32 61 68 184 68 228 0 45 -47 195 -84 269 -63 124 -135 210 -429 514
-601 623 -688 703 -844 780 -89 43 -186 50 -250 17z"/>
<path d="M2129 2747 c-30 -18 -151 -105 -269 -193 -571 -427 -788 -555 -1640
-967 -158 -76 -215 -111 -205 -128 4 -5 17 -9 31 -9 14 0 43 -9 64 -20 49 -25
105 -37 445 -94 703 -118 941 -181 1815 -485 243 -84 299 -85 227 -4 -25 28
-36 51 -40 86 -4 26 -32 114 -63 195 -122 321 -173 500 -200 712 -14 114 -16
182 -10 437 5 209 3 309 -4 323 -12 22 -49 26 -82 9 -31 -17 -32 -5 -5 53 24
50 31 75 28 106 -2 21 -35 13 -92 -21z m-145 -414 c-104 -238 -110 -505 -20
-771 35 -102 117 -255 187 -348 32 -44 54 -81 49 -82 -6 -2 -61 19 -123 46
-438 194 -906 303 -1377 320 -106 4 -175 11 -175 17 0 5 68 33 150 61 423 144
795 351 1110 617 50 41 112 98 140 126 61 63 82 68 59 14z"/>
</g>
</svg>
